<mxfile host="app.diagrams.net" modified="2023-06-30T20:34:02.943Z" agent="Mozilla/5.0 (Windows NT 10.0; Win64; x64) AppleWebKit/537.36 (KHTML, like Gecko) Chrome/114.0.0.0 Safari/537.36" etag="3KySj-kQsJ5JoltZLK3c" version="21.5.2" type="github">
  <diagram name="Page-1" id="CyqgOiU1ra_vV4j_q8uW">
    <mxGraphModel dx="1434" dy="699" grid="1" gridSize="10" guides="1" tooltips="1" connect="1" arrows="1" fold="1" page="1" pageScale="1" pageWidth="850" pageHeight="1100" math="0" shadow="0">
      <root>
        <mxCell id="0" />
        <mxCell id="1" parent="0" />
        <object label="VPC" id="8tvdgdWjCoKcJF46BDLs-2">
          <mxCell style="points=[[0,0],[0.25,0],[0.5,0],[0.75,0],[1,0],[1,0.25],[1,0.5],[1,0.75],[1,1],[0.75,1],[0.5,1],[0.25,1],[0,1],[0,0.75],[0,0.5],[0,0.25]];outlineConnect=0;gradientColor=none;html=1;whiteSpace=wrap;fontSize=12;fontStyle=0;container=1;pointerEvents=0;collapsible=0;recursiveResize=0;shape=mxgraph.aws4.group;grIcon=mxgraph.aws4.group_vpc;strokeColor=#248814;fillColor=none;verticalAlign=top;align=left;spacingLeft=30;fontColor=#AAB7B8;dashed=0;" parent="1" vertex="1">
            <mxGeometry x="90" y="110" width="550" height="540" as="geometry" />
          </mxCell>
        </object>
        <mxCell id="8tvdgdWjCoKcJF46BDLs-4" value="Availability Zone" style="fillColor=none;strokeColor=#147EBA;dashed=1;verticalAlign=top;fontStyle=0;fontColor=#147EBA;whiteSpace=wrap;html=1;" parent="8tvdgdWjCoKcJF46BDLs-2" vertex="1">
          <mxGeometry x="50" y="-20" width="170" height="510" as="geometry" />
        </mxCell>
        <mxCell id="8tvdgdWjCoKcJF46BDLs-6" value="Private subnet" style="points=[[0,0],[0.25,0],[0.5,0],[0.75,0],[1,0],[1,0.25],[1,0.5],[1,0.75],[1,1],[0.75,1],[0.5,1],[0.25,1],[0,1],[0,0.75],[0,0.5],[0,0.25]];outlineConnect=0;gradientColor=none;html=1;whiteSpace=wrap;fontSize=12;fontStyle=0;container=1;pointerEvents=0;collapsible=0;recursiveResize=0;shape=mxgraph.aws4.group;grIcon=mxgraph.aws4.group_security_group;grStroke=0;strokeColor=#147EBA;fillColor=#E6F2F8;verticalAlign=top;align=left;spacingLeft=30;fontColor=#147EBA;dashed=0;" parent="8tvdgdWjCoKcJF46BDLs-2" vertex="1">
          <mxGeometry x="70" y="40" width="130" height="250" as="geometry" />
        </mxCell>
        <mxCell id="zKKOu6tRkhAoHQwgrRc4-8" value="" style="edgeStyle=orthogonalEdgeStyle;html=1;endArrow=none;elbow=vertical;startArrow=block;startFill=1;strokeColor=#545B64;rounded=0;exitX=0.941;exitY=0.804;exitDx=0;exitDy=0;exitPerimeter=0;" edge="1" parent="8tvdgdWjCoKcJF46BDLs-6" source="8tvdgdWjCoKcJF46BDLs-4">
          <mxGeometry width="100" relative="1" as="geometry">
            <mxPoint x="80" y="94.5" as="sourcePoint" />
            <mxPoint x="180" y="94.5" as="targetPoint" />
          </mxGeometry>
        </mxCell>
        <mxCell id="zKKOu6tRkhAoHQwgrRc4-18" value="" style="sketch=0;points=[[0,0,0],[0.25,0,0],[0.5,0,0],[0.75,0,0],[1,0,0],[0,1,0],[0.25,1,0],[0.5,1,0],[0.75,1,0],[1,1,0],[0,0.25,0],[0,0.5,0],[0,0.75,0],[1,0.25,0],[1,0.5,0],[1,0.75,0]];outlineConnect=0;fontColor=#232F3E;gradientColor=#4D72F3;gradientDirection=north;fillColor=#3334B9;strokeColor=#ffffff;dashed=0;verticalLabelPosition=bottom;verticalAlign=top;align=center;html=1;fontSize=12;fontStyle=0;aspect=fixed;shape=mxgraph.aws4.resourceIcon;resIcon=mxgraph.aws4.rds;" vertex="1" parent="8tvdgdWjCoKcJF46BDLs-6">
          <mxGeometry x="26" y="130" width="78" height="78" as="geometry" />
        </mxCell>
        <mxCell id="8tvdgdWjCoKcJF46BDLs-8" value="Private subnet" style="points=[[0,0],[0.25,0],[0.5,0],[0.75,0],[1,0],[1,0.25],[1,0.5],[1,0.75],[1,1],[0.75,1],[0.5,1],[0.25,1],[0,1],[0,0.75],[0,0.5],[0,0.25]];outlineConnect=0;gradientColor=none;html=1;whiteSpace=wrap;fontSize=12;fontStyle=0;container=1;pointerEvents=0;collapsible=0;recursiveResize=0;shape=mxgraph.aws4.group;grIcon=mxgraph.aws4.group_security_group;grStroke=0;strokeColor=#147EBA;fillColor=#E6F2F8;verticalAlign=top;align=left;spacingLeft=30;fontColor=#147EBA;dashed=0;" parent="8tvdgdWjCoKcJF46BDLs-2" vertex="1">
          <mxGeometry x="370" y="30" width="130" height="260" as="geometry" />
        </mxCell>
        <mxCell id="zKKOu6tRkhAoHQwgrRc4-4" value="" style="sketch=0;points=[[0,0,0],[0.25,0,0],[0.5,0,0],[0.75,0,0],[1,0,0],[0,1,0],[0.25,1,0],[0.5,1,0],[0.75,1,0],[1,1,0],[0,0.25,0],[0,0.5,0],[0,0.75,0],[1,0.25,0],[1,0.5,0],[1,0.75,0]];outlineConnect=0;fontColor=#232F3E;gradientColor=#F78E04;gradientDirection=north;fillColor=#D05C17;strokeColor=#ffffff;dashed=0;verticalLabelPosition=bottom;verticalAlign=top;align=center;html=1;fontSize=12;fontStyle=0;aspect=fixed;shape=mxgraph.aws4.resourceIcon;resIcon=mxgraph.aws4.ec2;" vertex="1" parent="8tvdgdWjCoKcJF46BDLs-8">
          <mxGeometry x="26" y="140" width="78" height="78" as="geometry" />
        </mxCell>
        <mxCell id="8tvdgdWjCoKcJF46BDLs-9" value="Public subnet" style="points=[[0,0],[0.25,0],[0.5,0],[0.75,0],[1,0],[1,0.25],[1,0.5],[1,0.75],[1,1],[0.75,1],[0.5,1],[0.25,1],[0,1],[0,0.75],[0,0.5],[0,0.25]];outlineConnect=0;gradientColor=none;html=1;whiteSpace=wrap;fontSize=12;fontStyle=0;container=1;pointerEvents=0;collapsible=0;recursiveResize=0;shape=mxgraph.aws4.group;grIcon=mxgraph.aws4.group_security_group;grStroke=0;strokeColor=#248814;fillColor=#E9F3E6;verticalAlign=top;align=left;spacingLeft=30;fontColor=#248814;dashed=0;" parent="8tvdgdWjCoKcJF46BDLs-2" vertex="1">
          <mxGeometry x="70" y="320" width="130" height="130" as="geometry" />
        </mxCell>
        <mxCell id="zKKOu6tRkhAoHQwgrRc4-5" value="" style="sketch=0;points=[[0,0,0],[0.25,0,0],[0.5,0,0],[0.75,0,0],[1,0,0],[0,1,0],[0.25,1,0],[0.5,1,0],[0.75,1,0],[1,1,0],[0,0.25,0],[0,0.5,0],[0,0.75,0],[1,0.25,0],[1,0.5,0],[1,0.75,0]];outlineConnect=0;fontColor=#232F3E;gradientColor=#F78E04;gradientDirection=north;fillColor=#D05C17;strokeColor=#ffffff;dashed=0;verticalLabelPosition=bottom;verticalAlign=top;align=center;html=1;fontSize=12;fontStyle=0;aspect=fixed;shape=mxgraph.aws4.resourceIcon;resIcon=mxgraph.aws4.ec2;" vertex="1" parent="8tvdgdWjCoKcJF46BDLs-9">
          <mxGeometry x="20" y="26" width="78" height="78" as="geometry" />
        </mxCell>
        <mxCell id="8tvdgdWjCoKcJF46BDLs-10" value="Public subnet" style="points=[[0,0],[0.25,0],[0.5,0],[0.75,0],[1,0],[1,0.25],[1,0.5],[1,0.75],[1,1],[0.75,1],[0.5,1],[0.25,1],[0,1],[0,0.75],[0,0.5],[0,0.25]];outlineConnect=0;gradientColor=none;html=1;whiteSpace=wrap;fontSize=12;fontStyle=0;container=1;pointerEvents=0;collapsible=0;recursiveResize=0;shape=mxgraph.aws4.group;grIcon=mxgraph.aws4.group_security_group;grStroke=0;strokeColor=#248814;fillColor=#E9F3E6;verticalAlign=top;align=left;spacingLeft=30;fontColor=#248814;dashed=0;" parent="8tvdgdWjCoKcJF46BDLs-2" vertex="1">
          <mxGeometry x="400" y="320" width="130" height="150" as="geometry" />
        </mxCell>
        <mxCell id="zKKOu6tRkhAoHQwgrRc4-6" value="" style="sketch=0;points=[[0,0,0],[0.25,0,0],[0.5,0,0],[0.75,0,0],[1,0,0],[0,1,0],[0.25,1,0],[0.5,1,0],[0.75,1,0],[1,1,0],[0,0.25,0],[0,0.5,0],[0,0.75,0],[1,0.25,0],[1,0.5,0],[1,0.75,0]];outlineConnect=0;fontColor=#232F3E;gradientColor=#F78E04;gradientDirection=north;fillColor=#D05C17;strokeColor=#ffffff;dashed=0;verticalLabelPosition=bottom;verticalAlign=top;align=center;html=1;fontSize=12;fontStyle=0;aspect=fixed;shape=mxgraph.aws4.resourceIcon;resIcon=mxgraph.aws4.ec2;" vertex="1" parent="8tvdgdWjCoKcJF46BDLs-10">
          <mxGeometry x="26" y="26" width="78" height="78" as="geometry" />
        </mxCell>
        <mxCell id="8tvdgdWjCoKcJF46BDLs-5" value="" style="outlineConnect=0;dashed=0;verticalLabelPosition=bottom;verticalAlign=top;align=center;html=1;shape=mxgraph.aws3.internet_gateway;fillColor=#F58536;gradientColor=none;" parent="8tvdgdWjCoKcJF46BDLs-2" vertex="1">
          <mxGeometry x="250" y="-32" width="69" height="72" as="geometry" />
        </mxCell>
        <mxCell id="zKKOu6tRkhAoHQwgrRc4-1" value="" style="sketch=0;points=[[0,0,0],[0.25,0,0],[0.5,0,0],[0.75,0,0],[1,0,0],[0,1,0],[0.25,1,0],[0.5,1,0],[0.75,1,0],[1,1,0],[0,0.25,0],[0,0.5,0],[0,0.75,0],[1,0.25,0],[1,0.5,0],[1,0.75,0]];outlineConnect=0;fontColor=#232F3E;gradientColor=#F78E04;gradientDirection=north;fillColor=#D05C17;strokeColor=#ffffff;dashed=0;verticalLabelPosition=bottom;verticalAlign=top;align=center;html=1;fontSize=12;fontStyle=0;aspect=fixed;shape=mxgraph.aws4.resourceIcon;resIcon=mxgraph.aws4.ec2;" vertex="1" parent="8tvdgdWjCoKcJF46BDLs-2">
          <mxGeometry x="90" y="70" width="78" height="78" as="geometry" />
        </mxCell>
        <mxCell id="zKKOu6tRkhAoHQwgrRc4-3" value="" style="sketch=0;points=[[0,0,0],[0.25,0,0],[0.5,0,0],[0.75,0,0],[1,0,0],[0,1,0],[0.25,1,0],[0.5,1,0],[0.75,1,0],[1,1,0],[0,0.25,0],[0,0.5,0],[0,0.75,0],[1,0.25,0],[1,0.5,0],[1,0.75,0]];outlineConnect=0;fontColor=#232F3E;gradientColor=#F78E04;gradientDirection=north;fillColor=#D05C17;strokeColor=#ffffff;dashed=0;verticalLabelPosition=bottom;verticalAlign=top;align=center;html=1;fontSize=12;fontStyle=0;aspect=fixed;shape=mxgraph.aws4.resourceIcon;resIcon=mxgraph.aws4.ec2;" vertex="1" parent="8tvdgdWjCoKcJF46BDLs-2">
          <mxGeometry x="386" y="70" width="78" height="78" as="geometry" />
        </mxCell>
        <mxCell id="zKKOu6tRkhAoHQwgrRc4-7" value="Application Load Balancer" style="sketch=0;outlineConnect=0;fontColor=#232F3E;gradientColor=none;strokeColor=#ffffff;fillColor=#232F3E;dashed=0;verticalLabelPosition=middle;verticalAlign=bottom;align=center;html=1;whiteSpace=wrap;fontSize=10;fontStyle=1;spacing=3;shape=mxgraph.aws4.productIcon;prIcon=mxgraph.aws4.application_load_balancer;" vertex="1" parent="8tvdgdWjCoKcJF46BDLs-2">
          <mxGeometry x="244.5" y="80" width="80" height="110" as="geometry" />
        </mxCell>
        <mxCell id="zKKOu6tRkhAoHQwgrRc4-9" value="" style="edgeStyle=orthogonalEdgeStyle;html=1;endArrow=block;elbow=vertical;startArrow=none;endFill=1;strokeColor=#545B64;rounded=0;" edge="1" parent="8tvdgdWjCoKcJF46BDLs-2">
          <mxGeometry width="100" relative="1" as="geometry">
            <mxPoint x="326" y="120" as="sourcePoint" />
            <mxPoint x="386" y="375" as="targetPoint" />
            <Array as="points">
              <mxPoint x="326.5" y="121" />
              <mxPoint x="341.5" y="121" />
              <mxPoint x="341.5" y="375" />
            </Array>
          </mxGeometry>
        </mxCell>
        <mxCell id="8tvdgdWjCoKcJF46BDLs-3" value="Availability Zone" style="fillColor=none;strokeColor=#147EBA;dashed=1;verticalAlign=top;fontStyle=0;fontColor=#147EBA;whiteSpace=wrap;html=1;" parent="8tvdgdWjCoKcJF46BDLs-2" vertex="1">
          <mxGeometry x="360" y="-20" width="170" height="510" as="geometry" />
        </mxCell>
        <mxCell id="zKKOu6tRkhAoHQwgrRc4-11" value="" style="sketch=0;outlineConnect=0;fontColor=#232F3E;gradientColor=none;fillColor=#D45B07;strokeColor=none;dashed=0;verticalLabelPosition=bottom;verticalAlign=top;align=center;html=1;fontSize=12;fontStyle=0;aspect=fixed;pointerEvents=1;shape=mxgraph.aws4.auto_scaling2;" vertex="1" parent="8tvdgdWjCoKcJF46BDLs-2">
          <mxGeometry x="260.5" y="200" width="48" height="48" as="geometry" />
        </mxCell>
        <mxCell id="zKKOu6tRkhAoHQwgrRc4-12" value="" style="edgeStyle=orthogonalEdgeStyle;html=1;endArrow=block;elbow=vertical;startArrow=none;endFill=1;strokeColor=#545B64;rounded=0;" edge="1" parent="8tvdgdWjCoKcJF46BDLs-2">
          <mxGeometry width="100" relative="1" as="geometry">
            <mxPoint x="308.5" y="223.5" as="sourcePoint" />
            <mxPoint x="408.5" y="223.5" as="targetPoint" />
          </mxGeometry>
        </mxCell>
        <mxCell id="zKKOu6tRkhAoHQwgrRc4-19" value="" style="sketch=0;points=[[0,0,0],[0.25,0,0],[0.5,0,0],[0.75,0,0],[1,0,0],[0,1,0],[0.25,1,0],[0.5,1,0],[0.75,1,0],[1,1,0],[0,0.25,0],[0,0.5,0],[0,0.75,0],[1,0.25,0],[1,0.5,0],[1,0.75,0]];outlineConnect=0;fontColor=#232F3E;gradientColor=#4D72F3;gradientDirection=north;fillColor=#3334B9;strokeColor=#ffffff;dashed=0;verticalLabelPosition=bottom;verticalAlign=top;align=center;html=1;fontSize=12;fontStyle=0;aspect=fixed;shape=mxgraph.aws4.resourceIcon;resIcon=mxgraph.aws4.rds;" vertex="1" parent="8tvdgdWjCoKcJF46BDLs-2">
          <mxGeometry x="396" y="170" width="78" height="78" as="geometry" />
        </mxCell>
        <mxCell id="zKKOu6tRkhAoHQwgrRc4-10" value="" style="sketch=0;outlineConnect=0;fontColor=#232F3E;gradientColor=none;fillColor=#232F3D;strokeColor=none;dashed=0;verticalLabelPosition=bottom;verticalAlign=top;align=center;html=1;fontSize=12;fontStyle=0;aspect=fixed;pointerEvents=1;shape=mxgraph.aws4.client;" vertex="1" parent="1">
          <mxGeometry x="720" y="520" width="78" height="76" as="geometry" />
        </mxCell>
        <mxCell id="zKKOu6tRkhAoHQwgrRc4-13" value="" style="edgeStyle=orthogonalEdgeStyle;html=1;endArrow=none;elbow=vertical;startArrow=block;startFill=1;strokeColor=#545B64;rounded=0;" edge="1" parent="1">
          <mxGeometry width="100" relative="1" as="geometry">
            <mxPoint x="270" y="336" as="sourcePoint" />
            <mxPoint x="370" y="336" as="targetPoint" />
          </mxGeometry>
        </mxCell>
        <mxCell id="zKKOu6tRkhAoHQwgrRc4-14" value="" style="sketch=0;points=[[0,0,0],[0.25,0,0],[0.5,0,0],[0.75,0,0],[1,0,0],[0,1,0],[0.25,1,0],[0.5,1,0],[0.75,1,0],[1,1,0],[0,0.25,0],[0,0.5,0],[0,0.75,0],[1,0.25,0],[1,0.5,0],[1,0.75,0]];outlineConnect=0;fontColor=#232F3E;gradientColor=#60A337;gradientDirection=north;fillColor=#277116;strokeColor=#ffffff;dashed=0;verticalLabelPosition=bottom;verticalAlign=top;align=center;html=1;fontSize=12;fontStyle=0;aspect=fixed;shape=mxgraph.aws4.resourceIcon;resIcon=mxgraph.aws4.s3;" vertex="1" parent="1">
          <mxGeometry x="720" y="110" width="78" height="78" as="geometry" />
        </mxCell>
      </root>
    </mxGraphModel>
  </diagram>
</mxfile>
